Coordinates
version=1
nRows=41
nColumns=38
inDegrees=no

Units are S.I. units (second, meters, Newtons, ...)
If the header above contains a line with 'inDegrees', this indicates whether rotational values are in degrees (yes) or radians (no).

endheader
time	pelvis_tilt	pelvis_list	pelvis_rotation	pelvis_tx	pelvis_ty	pelvis_tz	hip_flexion_r	hip_adduction_r	hip_rotation_r	knee_angle_r	ankle_angle_r	subtalar_angle_r	mtp_angle_r	hip_flexion_l	hip_adduction_l	hip_rotation_l	knee_angle_l	ankle_angle_l	subtalar_angle_l	mtp_angle_l	lumbar_extension	lumbar_bending	lumbar_rotation	arm_flex_r	arm_add_r	arm_rot_r	elbow_flex_r	pro_sup_r	wrist_flex_r	wrist_dev_r	arm_flex_l	arm_add_l	arm_rot_l	elbow_flex_l	pro_sup_l	wrist_flex_l	wrist_dev_l
10	2.13669	1.41458	-0.58158	0.759084	1.71455	0.983883	-0.0345116	0.175882	-0.168595	0.219109	0.0654073	0	0	-0.140694	-0.143607	-0.0970325	0.055235	0.0806601	0	0	-0.0725332	0.199815	0.0579501	0.386138	-0.344395	0.405053	1.50878	1.5708	0	0	0.444775	-0.221692	0.340191	1.28965	1.5708	0	0
10.01	2.13711	1.41467	-0.581842	0.759286	1.71437	0.983885	-0.0341528	0.176062	-0.168461	0.219345	0.0651866	0	0	-0.139804	-0.143826	-0.0971019	0.0564404	0.0806982	0	0	-0.0725374	0.200004	0.0578945	0.387151	-0.34373	0.405365	1.50764	1.5708	0	0	0.445898	-0.221208	0.340784	1.28703	1.5708	0	0
10.02	2.13894	1.4147	-0.583456	0.759453	1.71422	0.983917	-0.0340992	0.176084	-0.168682	0.219541	0.0650844	0	0	-0.139172	-0.143918	-0.0972773	0.0576198	0.0804888	0	0	-0.0727197	0.200151	0.0577789	0.387919	-0.342973	0.405462	1.50652	1.5708	0	0	0.446786	-0.2206	0.341251	1.2845	1.5708	0	0
10.03	2.14172	1.41474	-0.585903	0.759604	1.7141	0.983971	-0.0342438	0.175971	-0.169168	0.219588	0.0649964	0	0	-0.138679	-0.143912	-0.0973056	0.0587371	0.0801392	0	0	-0.0730048	0.20018	0.0575347	0.388527	-0.342132	0.405474	1.50535	1.5708	0	0	0.447415	-0.219983	0.341543	1.28224	1.5708	0	0
10.04	2.14211	1.41474	-0.586088	0.759831	1.71392	0.983977	-0.0340964	0.1763	-0.169201	0.219512	0.0646673	0	0	-0.137722	-0.144327	-0.0974663	0.0602	0.0801052	0	0	-0.0731354	0.200262	0.0574402	0.388953	-0.34114	0.405357	1.50423	1.5708	0	0	0.448012	-0.219629	0.341763	1.28035	1.5708	0	0
10.05	2.14193	1.41479	-0.585785	0.76005	1.71377	0.983969	-0.0340044	0.176632	-0.169113	0.219175	0.0643022	0	0	-0.136744	-0.144712	-0.0976895	0.0615427	0.08018	0	0	-0.0731591	0.200384	0.0573365	0.389319	-0.340253	0.405515	1.50325	1.5708	0	0	0.448314	-0.219413	0.341812	1.27878	1.5708	0	0
10.06	2.14308	1.41483	-0.586989	0.760238	1.71366	0.983978	-0.0342724	0.176787	-0.168995	0.218687	0.0639576	0	0	-0.13625	-0.14486	-0.0981449	0.0624903	0.0802124	0	0	-0.0733343	0.200482	0.0574545	0.389577	-0.339609	0.405867	1.50239	1.5708	0	0	0.448713	-0.219056	0.34235	1.27706	1.5708	0	0
10.07	2.14542	1.41484	-0.589497	0.760381	1.71358	0.984009	-0.0347949	0.176747	-0.168988	0.218171	0.0637467	0	0	-0.136305	-0.144771	-0.0986147	0.0629063	0.0800197	0	0	-0.0736493	0.200576	0.0577675	0.389469	-0.338948	0.405594	1.50179	1.5708	0	0	0.448929	-0.218615	0.342767	1.27526	1.5708	0	0
10.08	2.14927	1.41469	-0.593202	0.760501	1.71355	0.984064	-0.0357104	0.176672	-0.169351	0.21755	0.0635842	0	0	-0.136869	-0.144705	-0.098887	0.0629523	0.0796813	0	0	-0.0741371	0.200604	0.0577453	0.38922	-0.338109	0.404822	1.50122	1.5708	0	0	0.448891	-0.21831	0.342915	1.27368	1.5708	0	0
10.09	2.15167	1.41452	-0.595643	0.760645	1.71349	0.984086	-0.0362455	0.176733	-0.169534	0.21726	0.0635092	0	0	-0.137346	-0.144762	-0.0991469	0.0627696	0.0795568	0	0	-0.0745645	0.200716	0.057879	0.389288	-0.337562	0.404727	1.50068	1.5708	0	0	0.448939	-0.218053	0.343173	1.27228	1.5708	0	0
10.1	2.15089	1.41462	-0.595282	0.76083	1.7134	0.984056	-0.0360019	0.176885	-0.169099	0.217304	0.0635407	0	0	-0.137318	-0.144867	-0.0994296	0.0624823	0.079557	0	0	-0.0745402	0.200907	0.058487	0.389384	-0.337276	0.404962	1.50032	1.5708	0	0	0.44888	-0.217904	0.343298	1.27084	1.5708	0	0
10.11	2.14804	1.41475	-0.592666	0.761054	1.7133	0.983995	-0.0353539	0.177273	-0.16874	0.217476	0.0635533	0	0	-0.136862	-0.145264	-0.0995047	0.0623854	0.0797141	0	0	-0.0741583	0.201132	0.058898	0.389447	-0.336809	0.405102	1.49988	1.5708	0	0	0.448976	-0.217944	0.343767	1.26941	1.5708	0	0
10.12	2.14609	1.41498	-0.590799	0.761238	1.71325	0.98395	-0.0348312	0.177443	-0.168512	0.217591	0.0636185	0	0	-0.136469	-0.14545	-0.0994968	0.0623234	0.0799098	0	0	-0.0736905	0.201191	0.0591224	0.389337	-0.336192	0.404916	1.49936	1.5708	0	0	0.449178	-0.217945	0.344561	1.26791	1.5708	0	0
10.13	2.14575	1.41521	-0.590462	0.761392	1.71322	0.983928	-0.0344811	0.177421	-0.168399	0.217847	0.0637481	0	0	-0.136313	-0.145435	-0.0994266	0.0622152	0.0799791	0	0	-0.0734921	0.201153	0.0593796	0.388976	-0.335488	0.404183	1.49898	1.5708	0	0	0.44945	-0.217925	0.345239	1.26657	1.5708	0	0
10.14	2.1457	1.41537	-0.590512	0.761517	1.71317	0.983909	-0.0341421	0.177394	-0.168108	0.218224	0.06386	0	0	-0.136261	-0.145414	-0.0993864	0.0620557	0.0797969	0	0	-0.0734268	0.201197	0.0596723	0.388898	-0.335222	0.404067	1.49854	1.5708	0	0	0.449682	-0.217841	0.345552	1.26542	1.5708	0	0
10.15	2.14556	1.41554	-0.590433	0.761617	1.71313	0.983885	-0.0338075	0.177377	-0.167797	0.21856	0.0639588	0	0	-0.136174	-0.145376	-0.099251	0.0619415	0.0796672	0	0	-0.0733439	0.20128	0.0597358	0.389174	-0.335034	0.404512	1.4981	1.5708	0	0	0.449942	-0.217718	0.345821	1.26459	1.5708	0	0
10.16	2.14483	1.41577	-0.589381	0.761732	1.71313	0.983865	-0.033328	0.177381	-0.168067	0.21893	0.0641159	0	0	-0.135824	-0.145439	-0.0988486	0.0620025	0.0797094	0	0	-0.0729685	0.201212	0.0593018	0.389309	-0.334494	0.404712	1.49747	1.5708	0	0	0.450053	-0.217821	0.34596	1.26405	1.5708	0	0
10.17	2.14515	1.41596	-0.58931	0.761827	1.71313	0.983867	-0.033108	0.17733	-0.168275	0.219129	0.064174	0	0	-0.135613	-0.145431	-0.0984803	0.062083	0.0797092	0	0	-0.0727758	0.201085	0.0588243	0.389549	-0.334061	0.405068	1.4968	1.5708	0	0	0.450129	-0.21797	0.345971	1.2637	1.5708	0	0
10.18	2.14626	1.41612	-0.590149	0.761881	1.71313	0.983887	-0.0330628	0.177179	-0.168355	0.219299	0.06414	0	0	-0.135674	-0.14529	-0.0983052	0.061933	0.0794167	0	0	-0.072763	0.20101	0.0585714	0.389586	-0.33364	0.404993	1.49627	1.5708	0	0	0.450163	-0.217988	0.345869	1.26336	1.5708	0	0
10.19	2.14793	1.41623	-0.591426	0.761903	1.71316	0.983905	-0.0332536	0.177035	-0.168557	0.219212	0.0640867	0	0	-0.135786	-0.145124	-0.0981096	0.0618808	0.0790645	0	0	-0.0728156	0.200967	0.0582517	0.389639	-0.333393	0.405111	1.49581	1.5708	0	0	0.450062	-0.217965	0.345512	1.26306	1.5708	0	0
10.2	2.14683	1.41631	-0.589942	0.761986	1.71318	0.983886	-0.03305	0.177294	-0.168777	0.219111	0.0639746	0	0	-0.135063	-0.145364	-0.0982099	0.0627565	0.0790559	0	0	-0.0725175	0.201047	0.0579259	0.389526	-0.333098	0.40527	1.49505	1.5708	0	0	0.450123	-0.218062	0.345535	1.26268	1.5708	0	0
10.21	2.14739	1.41623	-0.589795	0.762039	1.71323	0.983898	-0.0332794	0.177506	-0.169532	0.218884	0.0637852	0	0	-0.134536	-0.145583	-0.0982138	0.0638221	0.0791734	0	0	-0.0724312	0.201126	0.057307	0.38946	-0.332805	0.405582	1.49425	1.5708	0	0	0.450268	-0.218179	0.345929	1.26204	1.5708	0	0
10.22	2.15106	1.41623	-0.592916	0.762056	1.71325	0.983963	-0.0339074	0.177281	-0.170081	0.218628	0.063567	0	0	-0.135532	-0.145331	-0.0975224	0.0625317	0.0780266	0	0	-0.0728927	0.200892	0.0569476	0.38946	-0.332686	0.405921	1.49315	1.5708	0	0	0.450776	-0.218208	0.346862	1.26098	1.5708	0	0
10.23	2.15288	1.41625	-0.594361	0.762104	1.71326	0.984008	-0.0343035	0.177269	-0.170133	0.218259	0.0632319	0	0	-0.135952	-0.145262	-0.097309	0.0619318	0.0771667	0	0	-0.0731127	0.200722	0.0568484	0.389249	-0.332763	0.406341	1.49175	1.5708	0	0	0.451491	-0.218167	0.348316	1.25964	1.5708	0	0
10.24	2.15235	1.41645	-0.593387	0.762176	1.71329	0.984019	-0.0341407	0.177333	-0.170717	0.21817	0.0630756	0	0	-0.135569	-0.14533	-0.0971797	0.062066	0.0766056	0	0	-0.0728352	0.200547	0.0568751	0.388574	-0.332823	0.406586	1.49055	1.5708	0	0	0.452282	-0.218083	0.350166	1.2579	1.5708	0	0
10.25	2.15083	1.41678	-0.591323	0.762255	1.71332	0.984018	-0.0339198	0.17749	-0.17104	0.217728	0.0625789	0	0	-0.134907	-0.145423	-0.0968377	0.0622409	0.0757894	0	0	-0.0723033	0.20034	0.0570142	0.387424	-0.332865	0.406794	1.48983	1.5708	0	0	0.453095	-0.218008	0.352431	1.25591	1.5708	0	0
10.26	2.1494	1.41707	-0.589489	0.76233	1.71337	0.984031	-0.0337732	0.177673	-0.171053	0.217159	0.0618512	0	0	-0.134272	-0.145493	-0.0966969	0.0624764	0.0748029	0	0	-0.0718371	0.200193	0.0572976	0.386254	-0.333027	0.407241	1.48957	1.5708	0	0	0.45374	-0.217865	0.354515	1.254	1.5708	0	0
10.27	2.14861	1.41739	-0.588465	0.762412	1.7134	0.984082	-0.0336135	0.17778	-0.17084	0.216725	0.0610454	0	0	-0.133684	-0.145435	-0.0967509	0.0628077	0.0737756	0	0	-0.0715381	0.199944	0.05782	0.385291	-0.333223	0.406953	1.48949	1.5708	0	0	0.454307	-0.217578	0.356272	1.25203	1.5708	0	0
10.28	2.14849	1.41769	-0.588293	0.762507	1.71342	0.98417	-0.0334009	0.177825	-0.170507	0.216593	0.0602409	0	0	-0.133219	-0.145308	-0.096853	0.0632228	0.0727866	0	0	-0.0714828	0.199622	0.0585832	0.384448	-0.333564	0.406165	1.48941	1.5708	0	0	0.454986	-0.217139	0.358189	1.25001	1.5708	0	0
10.29	2.14796	1.41809	-0.587513	0.762612	1.71344	0.984267	-0.0331391	0.17788	-0.170128	0.216276	0.0592702	0	0	-0.132478	-0.145226	-0.0967524	0.0639397	0.0720448	0	0	-0.071295	0.199201	0.0592017	0.383466	-0.333813	0.40551	1.48961	1.5708	0	0	0.455673	-0.216696	0.36021	1.24817	1.5708	0	0
10.3	2.14692	1.41869	-0.586118	0.762711	1.71347	0.98435	-0.0328775	0.177877	-0.16968	0.215577	0.0581542	0	0	-0.131497	-0.144988	-0.0964301	0.0646299	0.0712433	0	0	-0.0708614	0.198625	0.0597042	0.382396	-0.333987	0.404973	1.49005	1.5708	0	0	0.456108	-0.216208	0.361581	1.24683	1.5708	0	0
10.31	2.1456	1.41921	-0.584656	0.762803	1.71348	0.98443	-0.0325314	0.177878	-0.169405	0.215078	0.0571737	0	0	-0.130578	-0.144749	-0.0963952	0.065233	0.0704491	0	0	-0.0705143	0.198174	0.0602988	0.381415	-0.334042	0.40437	1.49074	1.5708	0	0	0.456267	-0.215622	0.362154	1.24601	1.5708	0	0
10.32	2.14502	1.41947	-0.584025	0.76291	1.71345	0.984516	-0.032223	0.177959	-0.169372	0.214974	0.0564061	0	0	-0.129945	-0.14465	-0.0964048	0.0657985	0.0698532	0	0	-0.0705355	0.197867	0.0610199	0.38064	-0.334144	0.40401	1.4917	1.5708	0	0	0.45642	-0.214921	0.362264	1.24542	1.5708	0	0
10.33	2.14369	1.4197	-0.582542	0.763027	1.71341	0.984577	-0.0317104	0.178143	-0.169553	0.215056	0.0556196	0	0	-0.129168	-0.144688	-0.0962402	0.0664278	0.0694413	0	0	-0.0704364	0.197623	0.0615541	0.379921	-0.334083	0.403849	1.49279	1.5708	0	0	0.456534	-0.214239	0.362352	1.24486	1.5708	0	0
10.34	2.1418	1.41971	-0.580527	0.763152	1.71334	0.984615	-0.0310174	0.178532	-0.169739	0.215506	0.0549196	0	0	-0.128493	-0.14498	-0.0959131	0.0669056	0.0689982	0	0	-0.0704173	0.197612	0.0621248	0.379539	-0.334232	0.403404	1.49371	1.5708	0	0	0.456615	-0.213517	0.362175	1.24432	1.5708	0	0
10.35	2.14027	1.41951	-0.578927	0.763304	1.71324	0.984649	-0.0302057	0.17899	-0.170113	0.216458	0.0544274	0	0	-0.127977	-0.145453	-0.09539	0.0673898	0.0685441	0	0	-0.070594	0.197695	0.0629071	0.379001	-0.334378	0.402633	1.49461	1.5708	0	0	0.456817	-0.21268	0.361952	1.2435	1.5708	0	0
10.36	2.16766	1.42735	-0.600968	0.762789	1.71206	0.985255	-0.0251147	0.168708	-0.17635	0.220867	0.0552205	0	0	-0.119546	-0.138125	-0.124908	0.0742933	0.0688283	0	0	-0.0718933	0.188231	0.0585649	0.380092	-0.332228	0.401012	1.49214	1.5708	0	0	0.459228	-0.211994	0.361434	1.24022	1.5708	0	0
10.37	2.13864	1.4197	-0.577268	0.763628	1.71302	0.984709	-0.0281811	0.179219	-0.170494	0.2189	0.0539491	0	0	-0.126031	-0.14586	-0.0951144	0.0698309	0.0681632	0	0	-0.0705956	0.197135	0.0649806	0.377394	-0.335024	0.401136	1.4963	1.5708	0	0	0.457502	-0.210807	0.362764	1.24074	1.5708	0	0
10.38	2.13967	1.41979	-0.578097	0.763804	1.71291	0.984766	-0.0272219	0.179122	-0.171091	0.220598	0.0539132	0	0	-0.125331	-0.145936	-0.0950659	0.070918	0.0679601	0	0	-0.0707977	0.196603	0.0656643	0.376513	-0.334988	0.400123	1.49678	1.5708	0	0	0.457685	-0.210169	0.363092	1.23981	1.5708	0	0
10.39	2.14023	1.42004	-0.578485	0.763956	1.71279	0.984817	-0.026089	0.178868	-0.171656	0.222258	0.0538452	0	0	-0.124523	-0.145895	-0.09542	0.0718859	0.0677314	0	0	-0.0707942	0.196026	0.0662699	0.375535	-0.334948	0.399161	1.49758	1.5708	0	0	0.457696	-0.209493	0.363095	1.23896	1.5708	0	0
10.4	2.12688	1.42229	-0.565042	0.764165	1.71276	0.984775	-0.0219212	0.178135	-0.172049	0.223989	0.0535575	0	0	-0.120507	-0.145334	-0.0957385	0.0731947	0.0671697	0	0	-0.068938	0.191155	0.0761931	0.371573	-0.335945	0.391814	1.49675	1.5708	0	0	0.465204	-0.204258	0.374967	1.23351	1.5708	0	0
